<svg width="1093" height="127" viewBox="0 0 1093 127" fill="none" xmlns="http://www.w3.org/2000/svg">
<path d="M21.1364 99H0.0454547L32.1818 5.90909H57.5455L89.6364 99H68.5455L45.2273 27.1818H44.5L21.1364 99ZM19.8182 62.4091H69.6364V77.7727H19.8182V62.4091ZM122.955 100.136C117.652 100.136 112.848 98.7727 108.545 96.0455C104.273 93.2879 100.879 89.2424 98.3636 83.9091C95.8788 78.5455 94.6364 71.9697 94.6364 64.1818C94.6364 56.1818 95.9242 49.5303 98.5 44.2273C101.076 38.8939 104.5 34.9091 108.773 32.2727C113.076 29.6061 117.788 28.2727 122.909 28.2727C126.818 28.2727 130.076 28.9394 132.682 30.2727C135.318 31.5758 137.439 33.2121 139.045 35.1818C140.682 37.1212 141.924 39.0303 142.773 40.9091H143.364V5.90909H162.682V99H143.591V87.8182H142.773C141.864 89.7576 140.576 91.6818 138.909 93.5909C137.273 95.4697 135.136 97.0303 132.5 98.2727C129.894 99.5152 126.712 100.136 122.955 100.136ZM129.091 84.7273C132.212 84.7273 134.848 83.8788 137 82.1818C139.182 80.4545 140.848 78.0455 142 74.9545C143.182 71.8636 143.773 68.2424 143.773 64.0909C143.773 59.9394 143.197 56.3333 142.045 53.2727C140.894 50.2121 139.227 47.8485 137.045 46.1818C134.864 44.5151 132.212 43.6818 129.091 43.6818C125.909 43.6818 123.227 44.5455 121.045 46.2727C118.864 48 117.212 50.3939 116.091 53.4545C114.97 56.5151 114.409 60.0606 114.409 64.0909C114.409 68.1515 114.97 71.7424 116.091 74.8636C117.242 77.9545 118.894 80.3788 121.045 82.1364C123.227 83.8636 125.909 84.7273 129.091 84.7273ZM243.693 29.1818L219.284 99H197.466L173.057 29.1818H193.511L208.011 79.1364H208.739L223.193 29.1818H243.693ZM283.17 100.364C275.989 100.364 269.807 98.9091 264.625 96C259.473 93.0606 255.504 88.9091 252.716 83.5455C249.928 78.1515 248.534 71.7727 248.534 64.4091C248.534 57.2273 249.928 50.9242 252.716 45.5C255.504 40.0758 259.428 35.8485 264.489 32.8182C269.58 29.7879 275.549 28.2727 282.398 28.2727C287.004 28.2727 291.292 29.0152 295.261 30.5C299.261 31.9545 302.746 34.1515 305.716 37.0909C308.716 40.0303 311.049 43.7273 312.716 48.1818C314.383 52.6061 315.216 57.7879 315.216 63.7273V69.0455H256.261V57.0455H296.989C296.989 54.2576 296.383 51.7879 295.17 49.6364C293.958 47.4848 292.277 45.803 290.125 44.5909C288.004 43.3485 285.534 42.7273 282.716 42.7273C279.777 42.7273 277.17 43.4091 274.898 44.7727C272.655 46.1061 270.898 47.9091 269.625 50.1818C268.352 52.4242 267.701 54.9242 267.67 57.6818V69.0909C267.67 72.5455 268.307 75.5303 269.58 78.0455C270.883 80.5606 272.716 82.5 275.08 83.8636C277.443 85.2273 280.246 85.9091 283.489 85.9091C285.64 85.9091 287.61 85.6061 289.398 85C291.186 84.3939 292.716 83.4848 293.989 82.2727C295.261 81.0606 296.231 79.5758 296.898 77.8182L314.807 79C313.898 83.303 312.034 87.0606 309.216 90.2727C306.428 93.4545 302.822 95.9394 298.398 97.7273C294.004 99.4848 288.928 100.364 283.17 100.364ZM327.852 99V29.1818H346.625V41.3636H347.352C348.625 37.0303 350.761 33.7576 353.761 31.5455C356.761 29.303 360.216 28.1818 364.125 28.1818C365.095 28.1818 366.14 28.2424 367.261 28.3636C368.383 28.4848 369.367 28.6515 370.216 28.8636V46.0455C369.307 45.7727 368.049 45.5303 366.443 45.3182C364.837 45.1061 363.367 45 362.034 45C359.186 45 356.64 45.6212 354.398 46.8636C352.186 48.0758 350.428 49.7727 349.125 51.9545C347.852 54.1364 347.216 56.6515 347.216 59.5V99H327.852ZM420.864 29.1818V43.7273H378.818V29.1818H420.864ZM388.364 12.4545H407.727V77.5455C407.727 79.3333 408 80.7273 408.545 81.7273C409.091 82.697 409.848 83.3788 410.818 83.7727C411.818 84.1667 412.97 84.3636 414.273 84.3636C415.182 84.3636 416.091 84.2879 417 84.1364C417.909 83.9545 418.606 83.8182 419.091 83.7273L422.136 98.1364C421.167 98.4394 419.803 98.7879 418.045 99.1818C416.288 99.6061 414.152 99.8636 411.636 99.9545C406.97 100.136 402.879 99.5152 399.364 98.0909C395.879 96.6667 393.167 94.4545 391.227 91.4545C389.288 88.4545 388.333 84.6667 388.364 80.0909V12.4545ZM433.477 99V29.1818H452.841V99H433.477ZM443.205 20.1818C440.326 20.1818 437.856 19.2273 435.795 17.3182C433.765 15.3788 432.75 13.0606 432.75 10.3636C432.75 7.69697 433.765 5.40909 435.795 3.5C437.856 1.5606 440.326 0.590904 443.205 0.590904C446.083 0.590904 448.538 1.5606 450.568 3.5C452.629 5.40909 453.659 7.69697 453.659 10.3636C453.659 13.0606 452.629 15.3788 450.568 17.3182C448.538 19.2273 446.083 20.1818 443.205 20.1818ZM526.443 49.0909L508.716 50.1818C508.413 48.6667 507.761 47.303 506.761 46.0909C505.761 44.8485 504.443 43.8636 502.807 43.1364C501.201 42.3788 499.277 42 497.034 42C494.034 42 491.504 42.6364 489.443 43.9091C487.383 45.1515 486.352 46.8182 486.352 48.9091C486.352 50.5758 487.019 51.9848 488.352 53.1364C489.686 54.2879 491.973 55.2121 495.216 55.9091L507.852 58.4545C514.64 59.8485 519.701 62.0909 523.034 65.1818C526.367 68.2727 528.034 72.3333 528.034 77.3636C528.034 81.9394 526.686 85.9545 523.989 89.4091C521.322 92.8636 517.655 95.5606 512.989 97.5C508.352 99.4091 503.004 100.364 496.943 100.364C487.701 100.364 480.337 98.4394 474.852 94.5909C469.398 90.7121 466.201 85.4394 465.261 78.7727L484.307 77.7727C484.883 80.5909 486.277 82.7424 488.489 84.2273C490.701 85.6818 493.534 86.4091 496.989 86.4091C500.383 86.4091 503.11 85.7576 505.17 84.4545C507.261 83.1212 508.322 81.4091 508.352 79.3182C508.322 77.5606 507.58 76.1212 506.125 75C504.67 73.8485 502.428 72.9697 499.398 72.3636L487.307 69.9545C480.489 68.5909 475.413 66.2273 472.08 62.8636C468.777 59.5 467.125 55.2121 467.125 50C467.125 45.5151 468.337 41.6515 470.761 38.4091C473.216 35.1667 476.655 32.6667 481.08 30.9091C485.534 29.1515 490.746 28.2727 496.716 28.2727C505.534 28.2727 512.473 30.1364 517.534 33.8636C522.625 37.5909 525.595 42.6667 526.443 49.0909ZM540.227 99V29.1818H559.591V99H540.227ZM549.955 20.1818C547.076 20.1818 544.606 19.2273 542.545 17.3182C540.515 15.3788 539.5 13.0606 539.5 10.3636C539.5 7.69697 540.515 5.40909 542.545 3.5C544.606 1.5606 547.076 0.590904 549.955 0.590904C552.833 0.590904 555.288 1.5606 557.318 3.5C559.379 5.40909 560.409 7.69697 560.409 10.3636C560.409 13.0606 559.379 15.3788 557.318 17.3182C555.288 19.2273 552.833 20.1818 549.955 20.1818ZM594.466 58.6364V99H575.102V29.1818H593.557V41.5H594.375C595.92 37.4394 598.511 34.2273 602.148 31.8636C605.784 29.4697 610.193 28.2727 615.375 28.2727C620.223 28.2727 624.451 29.3333 628.057 31.4545C631.663 33.5758 634.466 36.6061 636.466 40.5455C638.466 44.4545 639.466 49.1212 639.466 54.5455V99H620.102V58C620.133 53.7273 619.042 50.3939 616.83 48C614.617 45.5758 611.572 44.3636 607.693 44.3636C605.087 44.3636 602.784 44.9242 600.784 46.0455C598.814 47.1667 597.269 48.803 596.148 50.9545C595.057 53.0758 594.496 55.6364 594.466 58.6364ZM686.182 126.636C679.909 126.636 674.53 125.773 670.045 124.045C665.591 122.348 662.045 120.03 659.409 117.091C656.773 114.152 655.061 110.848 654.273 107.182L672.182 104.773C672.727 106.167 673.591 107.47 674.773 108.682C675.955 109.894 677.515 110.864 679.455 111.591C681.424 112.348 683.818 112.727 686.636 112.727C690.848 112.727 694.318 111.697 697.045 109.636C699.803 107.606 701.182 104.197 701.182 99.4091V86.6364H700.364C699.515 88.5758 698.242 90.4091 696.545 92.1364C694.848 93.8636 692.667 95.2727 690 96.3636C687.333 97.4545 684.152 98 680.455 98C675.212 98 670.439 96.7879 666.136 94.3636C661.864 91.9091 658.455 88.1667 655.909 83.1364C653.394 78.0758 652.136 71.6818 652.136 63.9545C652.136 56.0455 653.424 49.4394 656 44.1364C658.576 38.8333 662 34.8636 666.273 32.2273C670.576 29.5909 675.288 28.2727 680.409 28.2727C684.318 28.2727 687.591 28.9394 690.227 30.2727C692.864 31.5758 694.985 33.2121 696.591 35.1818C698.227 37.1212 699.485 39.0303 700.364 40.9091H701.091V29.1818H720.318V99.6818C720.318 105.621 718.864 110.591 715.955 114.591C713.045 118.591 709.015 121.591 703.864 123.591C698.742 125.621 692.848 126.636 686.182 126.636ZM686.591 83.4545C689.712 83.4545 692.348 82.6818 694.5 81.1364C696.682 79.5606 698.348 77.3182 699.5 74.4091C700.682 71.4697 701.273 67.9545 701.273 63.8636C701.273 59.7727 700.697 56.2273 699.545 53.2273C698.394 50.197 696.727 47.8485 694.545 46.1818C692.364 44.5151 689.712 43.6818 686.591 43.6818C683.409 43.6818 680.727 44.5455 678.545 46.2727C676.364 47.9697 674.712 50.3333 673.591 53.3636C672.47 56.3939 671.909 59.8939 671.909 63.8636C671.909 67.8939 672.47 71.3788 673.591 74.3182C674.742 77.2273 676.394 79.4848 678.545 81.0909C680.727 82.6667 683.409 83.4545 686.591 83.4545ZM757.045 99L730.409 5.90909H751.909L767.318 70.5909H768.091L785.091 5.90909H803.5L820.455 70.7273H821.273L836.682 5.90909H858.182L831.545 99H812.364L794.636 38.1364H793.909L776.227 99H757.045ZM892.398 100.364C885.337 100.364 879.231 98.8636 874.08 95.8636C868.958 92.8333 865.004 88.6212 862.216 83.2273C859.428 77.803 858.034 71.5152 858.034 64.3636C858.034 57.1515 859.428 50.8485 862.216 45.4545C865.004 40.0303 868.958 35.8182 874.08 32.8182C879.231 29.7879 885.337 28.2727 892.398 28.2727C899.458 28.2727 905.549 29.7879 910.67 32.8182C915.822 35.8182 919.792 40.0303 922.58 45.4545C925.367 50.8485 926.761 57.1515 926.761 64.3636C926.761 71.5152 925.367 77.803 922.58 83.2273C919.792 88.6212 915.822 92.8333 910.67 95.8636C905.549 98.8636 899.458 100.364 892.398 100.364ZM892.489 85.3636C895.701 85.3636 898.383 84.4545 900.534 82.6364C902.686 80.7879 904.307 78.2727 905.398 75.0909C906.519 71.9091 907.08 68.2879 907.08 64.2273C907.08 60.1667 906.519 56.5455 905.398 53.3636C904.307 50.1818 902.686 47.6667 900.534 45.8182C898.383 43.9697 895.701 43.0455 892.489 43.0455C889.246 43.0455 886.519 43.9697 884.307 45.8182C882.125 47.6667 880.473 50.1818 879.352 53.3636C878.261 56.5455 877.716 60.1667 877.716 64.2273C877.716 68.2879 878.261 71.9091 879.352 75.0909C880.473 78.2727 882.125 80.7879 884.307 82.6364C886.519 84.4545 889.246 85.3636 892.489 85.3636ZM939.352 99V29.1818H958.125V41.3636H958.852C960.125 37.0303 962.261 33.7576 965.261 31.5455C968.261 29.303 971.716 28.1818 975.625 28.1818C976.595 28.1818 977.64 28.2424 978.761 28.3636C979.883 28.4848 980.867 28.6515 981.716 28.8636V46.0455C980.807 45.7727 979.549 45.5303 977.943 45.3182C976.337 45.1061 974.867 45 973.534 45C970.686 45 968.14 45.6212 965.898 46.8636C963.686 48.0758 961.928 49.7727 960.625 51.9545C959.352 54.1364 958.716 56.6515 958.716 59.5V99H939.352ZM1011.09 5.90909V99H991.727V5.90909H1011.09ZM1052.33 100.136C1047.03 100.136 1042.22 98.7727 1037.92 96.0455C1033.65 93.2879 1030.25 89.2424 1027.74 83.9091C1025.25 78.5455 1024.01 71.9697 1024.01 64.1818C1024.01 56.1818 1025.3 49.5303 1027.88 44.2273C1030.45 38.8939 1033.88 34.9091 1038.15 32.2727C1042.45 29.6061 1047.16 28.2727 1052.28 28.2727C1056.19 28.2727 1059.45 28.9394 1062.06 30.2727C1064.69 31.5758 1066.81 33.2121 1068.42 35.1818C1070.06 37.1212 1071.3 39.0303 1072.15 40.9091H1072.74V5.90909H1092.06V99H1072.97V87.8182H1072.15C1071.24 89.7576 1069.95 91.6818 1068.28 93.5909C1066.65 95.4697 1064.51 97.0303 1061.88 98.2727C1059.27 99.5152 1056.09 100.136 1052.33 100.136ZM1058.47 84.7273C1061.59 84.7273 1064.22 83.8788 1066.38 82.1818C1068.56 80.4545 1070.22 78.0455 1071.38 74.9545C1072.56 71.8636 1073.15 68.2424 1073.15 64.0909C1073.15 59.9394 1072.57 56.3333 1071.42 53.2727C1070.27 50.2121 1068.6 47.8485 1066.42 46.1818C1064.24 44.5151 1061.59 43.6818 1058.47 43.6818C1055.28 43.6818 1052.6 44.5455 1050.42 46.2727C1048.24 48 1046.59 50.3939 1045.47 53.4545C1044.34 56.5151 1043.78 60.0606 1043.78 64.0909C1043.78 68.1515 1044.34 71.7424 1045.47 74.8636C1046.62 77.9545 1048.27 80.3788 1050.42 82.1364C1052.6 83.8636 1055.28 84.7273 1058.47 84.7273Z" fill="white"/>
</svg>
